<svg xmlns="http://www.w3.org/2000/svg" width="64" height="64"><path d="M15-.148C6.998-.148.5 6.349.5 14.352c0 8.002 6.498 14.5 14.5 14.5 7.098-.01 13.154-5.164 14.295-12.17l.094-.58H26.75c-.978 0-1.75-.772-1.75-1.75 0-.979.772-1.75 1.75-1.75h2.65l-.093-.58A14.507 14.507 0 0 0 15-.149zm0 1c6.408 0 11.803 4.536 13.113 10.75H26.75a2.755 2.755 0 0 0-2.75 2.75 2.755 2.755 0 0 0 2.75 2.75h1.352C26.792 23.31 21.403 27.844 15 27.852c-7.462 0-13.5-6.039-13.5-13.5C1.5 6.89 7.538.852 15 .852zm-.512 1.972c-1.65 0-3 1.35-3 3 0 1.651 1.35 3 3 3 1.651 0 3-1.349 3-3 0-1.65-1.349-3-3-3zm0 1c1.11 0 2 .89 2 2 0 1.11-.89 2-2 2-1.11 0-2-.89-2-2 0-1.11.89-2 2-2zm6.38 1.62c-.77 0-1.54.292-2.124.876a3.012 3.012 0 0 0-.002 4.248 3.012 3.012 0 0 0 4.248 0 3.012 3.012 0 0 0-.002-4.248 2.99 2.99 0 0 0-2.12-.877zm-12.741.029c-.77 0-1.539.29-2.123.875a3.012 3.012 0 0 0 0 4.248 3.012 3.012 0 0 0 4.248 0 3.012 3.012 0 0 0-.002-4.248 2.992 2.992 0 0 0-2.123-.875zm12.74.965c.511 0 1.021.196 1.414.59.787.786.789 2.045.002 2.831a1.997 1.997 0 0 1-2.834 0 1.995 1.995 0 0 1 .002-2.832c.393-.393.905-.59 1.416-.59zm-12.74.027c.511 0 1.023.196 1.416.59.786.786.788 2.047.002 2.834a1.997 1.997 0 0 1-2.834 0 1.997 1.997 0 0 1 0-2.834c.393-.394.905-.59 1.416-.59zM5.5 11.852c-1.65 0-3 1.349-3 3 0 1.65 1.35 3 3 3s3-1.35 3-3c0-1.651-1.35-3-3-3zm0 1c1.11 0 2 .89 2 2 0 1.11-.89 2-2 2-1.11 0-2-.89-2-2 0-1.11.89-2 2-2zm15.395 5.332c-.77 0-1.54.292-2.124.877a3.01 3.01 0 0 0-.001 4.246 3.012 3.012 0 0 0 4.248 0 3.01 3.01 0 0 0 0-4.246 2.994 2.994 0 0 0-2.123-.877zm-12.74.027a2.99 2.99 0 0 0-2.122.877 3.01 3.01 0 0 0-.002 4.246 3.012 3.012 0 0 0 4.248 0 3.01 3.01 0 0 0-.002-4.246 2.994 2.994 0 0 0-2.123-.877zm12.74.967c.51 0 1.022.196 1.416.59a1.995 1.995 0 0 1 0 2.832 1.997 1.997 0 0 1-2.834 0 1.995 1.995 0 0 1 .002-2.832c.393-.394.904-.59 1.416-.59zm-12.74.027c.51 0 1.022.197 1.415.59.787.786.789 2.046.002 2.832a1.997 1.997 0 0 1-2.834 0 1.995 1.995 0 0 1 .002-2.832c.393-.393.903-.59 1.414-.59zm6.372 1.635c-1.65 0-3 1.349-3 3 0 1.65 1.35 3 3 3 1.651 0 3-1.35 3-3 0-1.651-1.349-3-3-3zm0 1c1.11 0 2 .89 2 2 0 1.11-.89 2-2 2-1.11 0-2-.89-2-2 0-1.11.89-2 2-2zM5.5 28.852V29.666l-2-.191V31.5l2-.19v.542h4.963l20.295-.5c.332 0 .627-.083.857-.258a.952.952 0 0 0 .385-.742.952.952 0 0 0-.385-.743c-.23-.174-.525-.257-.857-.257l-20.295-.5H5.5zm1 1H10v1H6.5v-1zm4.5.013 19.752.487L11 30.838v-.973z" color="#000" font-family="sans-serif" font-weight="400" overflow="visible" style="line-height:normal;text-indent:0;text-align:start;text-decoration-line:none;text-decoration-style:solid;text-decoration-color:#000;text-transform:none;block-progression:tb;white-space:normal;isolation:auto;mix-blend-mode:normal;solid-color:#000;solid-opacity:1"/></svg>